# xmcd
# 
# Track frame offsets:
#     150
#     11950
#     23375
#     35660
#     45787
#     60645
#     71770
#     82865
#     92585
#     105312
#     118960
#     131565
#     141437
#     152907
#     162635
#     173250
#     183302
#     193535
#     202707
# 
# Disc length: 2830
# 
# Revision: 1
# Processed by: cddbd v1.5.2PL0 Copyright (c) Steve Scherf et al.
# Submitted via: fre:ac v1.0.17
# 
DISCID=f10b0c13
DTITLE=Marty Robbins - Rock'n Roll'n Robbins
DYEAR=1991
DGENRE=Country
TTITLE0=That's All Right
TTITLE1=Maybellene
TTITLE2=Pretty Mama
TTITLE3=Mean Mama Blues
TTITLE4=Tennessee Toddy
TTITLE5=Singing The Blues
TTITLE6=I Can't Quit (I've Gone Too Far)
TTITLE7=Long Tall Sally
TTITLE8=Mister Teardrop
TTITLE9=Respectfully Miss Brooks
TTITLE10=You Don't Owe Me A Thing
TTITLE11=Knee Deep In The Blues
TTITLE12=Long Gone Lonesome Blues
TTITLE13=Baby, I Need You
TTITLE14=Pain And  Misery
TTITLE15=Footprints In The Snow
TTITLE16=It's Driving Me Cracy
TTITLE17=It's A Long, Long Ride
TTITLE18=Call Me Up (And I'll Come Calling On You)
EXTD=Bear Family -1991
EXTT0=
EXTT1=
EXTT2=
EXTT3=
EXTT4=
EXTT5=
EXTT6=
EXTT7=
EXTT8=
EXTT9=
EXTT10=
EXTT11=
EXTT12=
EXTT13=
EXTT14=
EXTT15=
EXTT16=
EXTT17=
EXTT18=
PLAYORDER=
